<svg xmlns="http://www.w3.org/2000/svg" version="1.1" xmlns:xlink="http://www.w3.org/1999/xlink" xmlns:svgjs="http://svgjs.dev/svgjs" viewBox="0 0 0.9122776679093288 0.9072402382865018"><g transform="matrix(1,0,0,1,-2.2471205312797107,-0.6038798808567489)"><g transform="matrix(1,0,0,1,0,0)"><g clip-path="url(#SvgjsClipPath1133)"><path d=" M 3.0735104425121587 1.0574999999999997 C 3.0735104425121587 1.2633750900700236 2.9066157404929855 1.430269792089197 2.700740650422962 1.430269792089197 C 2.494865560352938 1.430269792089197 2.3279708583337646 1.2633750900700236 2.3279708583337646 1.0574999999999997 C 2.3279708583337646 0.851624909929976 2.494865560352938 0.6847302079108027 2.700740650422962 0.6847302079108027 C 2.9066157404929855 0.6847302079108027 3.0735104425121587 0.851624909929976 3.0735104425121587 1.0574999999999997 Z" fill="#002540" transform="matrix(1,0,0,1,0,0)" fill-rule="nonzero"></path></g></g><g transform="matrix(1,0,0,1,0,0)"><path d=" M 2.6966334287109377 0.9517499999999999 L 2.6966334287109377 1.16325 L 2.6378334287109375 1.16325 L 2.6378334287109375 1.0465499999999999 L 2.5979334287109377 1.16325 L 2.5487334287109378 1.16325 L 2.5085334287109378 1.04565 L 2.5085334287109378 1.16325 L 2.4497334287109376 1.16325 L 2.4497334287109376 0.9517499999999999 L 2.5208334287109375 0.9517499999999999 L 2.5739334287109377 1.0891499999999998 L 2.6258334287109375 0.9517499999999999 L 2.6966334287109377 0.9517499999999999 M 2.9119396962890627 0.9650999999999998 Q 2.9369896962890625 0.9784499999999998 2.9504896962890625 1.0024499999999998 Q 2.9639896962890626 1.0264499999999999 2.9639896962890626 1.0573499999999998 Q 2.9639896962890626 1.08795 2.9503396962890625 1.11195 Q 2.9366896962890627 1.1359499999999998 2.9116396962890625 1.1496 Q 2.8865896962890627 1.16325 2.8535896962890623 1.16325 L 2.7698896962890625 1.16325 L 2.7698896962890625 0.9517499999999999 L 2.8535896962890623 0.9517499999999999 Q 2.8868896962890624 0.9517499999999999 2.9119396962890627 0.9650999999999998 M 2.8895896962890624 1.0972499999999998 Q 2.9042896962890623 1.0831499999999998 2.9042896962890623 1.0573499999999998 Q 2.9042896962890623 1.03125 2.8895896962890624 1.017 Q 2.8748896962890624 1.0027499999999998 2.8490896962890626 1.0027499999999998 L 2.8286896962890626 1.0027499999999998 L 2.8286896962890626 1.1113499999999998 L 2.8490896962890626 1.1113499999999998 Q 2.8748896962890624 1.1113499999999998 2.8895896962890624 1.0972499999999998" fill="#ffffff" fill-rule="nonzero"></path></g><g transform="matrix(1,0,0,1,0,0)"></g></g><defs><clipPath id="SvgjsClipPath1133"><path d=" M 2.3229334287109378 0.6796927782879758 h 0.760651873046875 v 0.7556144434240479 h -0.760651873046875 Z"></path></clipPath></defs></svg>